# xmcd CD database file
#
# Track frame offsets:
#	150
#	21390
#	40975
#	59975
#	80960
#	106142
#	124530
#	147222
#	169517
#	188700
#	208890
#	230477
#
# Disc length: 3316 seconds
#
# Revision: 0
# Processed by: cddbd v1.5.1PL2 Copyright (c) Steve Scherf et al.
# Submitted via: CDex 1.51
#
DISCID=af0cf20c
DTITLE=ご近所物語 - ご近所物語 ご近所CD通信PART? ヴォーカルアルバム
DYEAR=1996
DGENRE=アニメ
TTITLE0=宍戸留美 - ヒ・ロ・イ・ン
TTITLE1=宍戸留美 - 市場へ出かけましょッ！
TTITLE2=山口勝平 - 月に吠える 〜ツトムVersion〜
TTITLE3=冬馬由美 - Don't be serious
TTITLE4=大門一也 - ジレンマだよな
TTITLE5=宍戸留美＆山口勝平 - 思いっきりピクニック日和
TTITLE6=皆口裕子 - 好きでいいよね
TTITLE7=宍戸留美 - Heart 〜言葉にできない〜
TTITLE8=森川智之 - next to me
TTITLE9=宍戸留美 - No Problem!
TTITLE10=宍戸留美 - Girls, be Ambitious 〜▼ウキウキ▼Re-MIX Version〜
TTITLE11=宍戸留美 - NG!
EXTD=YEAR: 1996
EXTT0=
EXTT1=
EXTT2=
EXTT3=
EXTT4=
EXTT5=
EXTT6=
EXTT7=
EXTT8=
EXTT9=
EXTT10=
EXTT11=
PLAYORDER=
